<?xml version="1.0" encoding="UTF-8"?>
<svg xmlns="http://www.w3.org/2000/svg" xmlns:xlink="http://www.w3.org/1999/xlink" width="16pt" height="8pt" viewBox="0 0 16 8" version="1.1">
<g id="surface1">
<path style=" stroke:none;fill-rule:nonzero;fill:rgb(31.764706%,70.980392%,33.333333%);fill-opacity:1;" d="M 8 0.078125 C 5.832031 0.078125 4.078125 1.832031 4.078125 4 C 4.078125 6.167969 5.832031 7.921875 8 7.921875 C 10.167969 7.921875 11.921875 6.167969 11.921875 4 C 11.921875 1.832031 10.167969 0.078125 8 0.078125 Z M 10.445312 3.035156 L 7.699219 5.683594 C 7.664062 5.71875 7.621094 5.75 7.578125 5.769531 C 7.40625 5.894531 7.164062 5.878906 7.007812 5.722656 L 5.832031 4.542969 C 5.65625 4.371094 5.65625 4.09375 5.832031 3.921875 C 6.003906 3.746094 6.28125 3.746094 6.453125 3.921875 L 7.339844 4.804688 L 9.820312 2.414062 C 9.992188 2.242188 10.273438 2.242188 10.445312 2.414062 C 10.617188 2.585938 10.617188 2.863281 10.445312 3.035156 Z M 10.445312 3.035156 "/>
</g>
</svg>
